# Low-poly desk lamp, generated by create_lamp_obj.py
v 0.700000 0.000000 0.000000
v 0.676148 0.181173 0.000000
v 0.606218 0.350000 0.000000
v 0.494975 0.494975 0.000000
v 0.350000 0.606218 0.000000
v 0.181173 0.676148 0.000000
v 0.000000 0.700000 0.000000
v -0.181173 0.676148 0.000000
v -0.350000 0.606218 0.000000
v -0.494975 0.494975 0.000000
v -0.606218 0.350000 0.000000
v -0.676148 0.181173 0.000000
v -0.700000 0.000000 0.000000
v -0.676148 -0.181173 0.000000
v -0.606218 -0.350000 0.000000
v -0.494975 -0.494975 0.000000
v -0.350000 -0.606218 0.000000
v -0.181173 -0.676148 0.000000
v -0.000000 -0.700000 0.000000
v 0.181173 -0.676148 0.000000
v 0.350000 -0.606218 0.000000
v 0.494975 -0.494975 0.000000
v 0.606218 -0.350000 0.000000
v 0.676148 -0.181173 0.000000
v 0.560000 0.000000 0.160000
v 0.540918 0.144939 0.160000
v 0.484974 0.280000 0.160000
v 0.395980 0.395980 0.160000
v 0.280000 0.484974 0.160000
v 0.144939 0.540918 0.160000
v 0.000000 0.560000 0.160000
v -0.144939 0.540918 0.160000
v -0.280000 0.484974 0.160000
v -0.395980 0.395980 0.160000
v -0.484974 0.280000 0.160000
v -0.540918 0.144939 0.160000
v -0.560000 0.000000 0.160000
v -0.540918 -0.144939 0.160000
v -0.484974 -0.280000 0.160000
v -0.395980 -0.395980 0.160000
v -0.280000 -0.484974 0.160000
v -0.144939 -0.540918 0.160000
v -0.000000 -0.560000 0.160000
v 0.144939 -0.540918 0.160000
v 0.280000 -0.484974 0.160000
v 0.395980 -0.395980 0.160000
v 0.484974 -0.280000 0.160000
v 0.540918 -0.144939 0.160000
v 0.100000 0.000000 0.160000
v 0.096593 0.025882 0.160000
v 0.086603 0.050000 0.160000
v 0.070711 0.070711 0.160000
v 0.050000 0.086603 0.160000
v 0.025882 0.096593 0.160000
v 0.000000 0.100000 0.160000
v -0.025882 0.096593 0.160000
v -0.050000 0.086603 0.160000
v -0.070711 0.070711 0.160000
v -0.086603 0.050000 0.160000
v -0.096593 0.025882 0.160000
v -0.100000 0.000000 0.160000
v -0.096593 -0.025882 0.160000
v -0.086603 -0.050000 0.160000
v -0.070711 -0.070711 0.160000
v -0.050000 -0.086603 0.160000
v -0.025882 -0.096593 0.160000
v -0.000000 -0.100000 0.160000
v 0.025882 -0.096593 0.160000
v 0.050000 -0.086603 0.160000
v 0.070711 -0.070711 0.160000
v 0.086603 -0.050000 0.160000
v 0.096593 -0.025882 0.160000
v 0.100000 0.000000 0.920000
v 0.096593 0.025882 0.920000
v 0.086603 0.050000 0.920000
v 0.070711 0.070711 0.920000
v 0.050000 0.086603 0.920000
v 0.025882 0.096593 0.920000
v 0.000000 0.100000 0.920000
v -0.025882 0.096593 0.920000
v -0.050000 0.086603 0.920000
v -0.070711 0.070711 0.920000
v -0.086603 0.050000 0.920000
v -0.096593 0.025882 0.920000
v -0.100000 0.000000 0.920000
v -0.096593 -0.025882 0.920000
v -0.086603 -0.050000 0.920000
v -0.070711 -0.070711 0.920000
v -0.050000 -0.086603 0.920000
v -0.025882 -0.096593 0.920000
v -0.000000 -0.100000 0.920000
v 0.025882 -0.096593 0.920000
v 0.050000 -0.086603 0.920000
v 0.070711 -0.070711 0.920000
v 0.086603 -0.050000 0.920000
v 0.096593 -0.025882 0.920000
v 0.000000 -0.075000 0.900000
v 0.520000 -0.075000 1.420000
v 0.045928 -0.037500 0.854072
v 0.565928 -0.037500 1.374072
v 0.045928 0.037500 0.854072
v 0.565928 0.037500 1.374072
v 0.000000 0.075000 0.900000
v 0.520000 0.075000 1.420000
v -0.045928 0.037500 0.945928
v 0.474072 0.037500 1.465928
v -0.045928 -0.037500 0.945928
v 0.474072 -0.037500 1.465928
v 0.520000 -0.075000 1.420000
v 0.940000 -0.075000 1.180000
v 0.487775 -0.037500 1.363606
v 0.907775 -0.037500 1.123606
v 0.487775 0.037500 1.363606
v 0.907775 0.037500 1.123606
v 0.520000 0.075000 1.420000
v 0.940000 0.075000 1.180000
v 0.552225 0.037500 1.476394
v 0.972225 0.037500 1.236394
v 0.552225 -0.037500 1.476394
v 0.972225 -0.037500 1.236394
v 0.900000 -0.120000 1.160000
v 1.020000 -0.120000 1.090000
v 0.847636 -0.060000 1.070233
v 0.967636 -0.060000 1.000233
v 0.847636 0.060000 1.070233
v 0.967636 0.060000 1.000233
v 0.900000 0.120000 1.160000
v 1.020000 0.120000 1.090000
v 0.952364 0.060000 1.249767
v 1.072364 0.060000 1.179767
v 0.952364 -0.060000 1.249767
v 1.072364 -0.060000 1.179767
v 1.000000 0.220000 1.090000
v 1.000000 0.212504 1.146940
v 1.000000 0.190526 1.200000
v 1.000000 0.155563 1.245563
v 1.000000 0.110000 1.280526
v 1.000000 0.056940 1.302504
v 1.000000 0.000000 1.310000
v 1.000000 -0.056940 1.302504
v 1.000000 -0.110000 1.280526
v 1.000000 -0.155563 1.245563
v 1.000000 -0.190526 1.200000
v 1.000000 -0.212504 1.146940
v 1.000000 -0.220000 1.090000
v 1.000000 -0.212504 1.033060
v 1.000000 -0.190526 0.980000
v 1.000000 -0.155563 0.934437
v 1.000000 -0.110000 0.899474
v 1.000000 -0.056940 0.877496
v 1.000000 -0.000000 0.870000
v 1.000000 0.056940 0.877496
v 1.000000 0.110000 0.899474
v 1.000000 0.155563 0.934437
v 1.000000 0.190526 0.980000
v 1.000000 0.212504 1.033060
v 1.580000 0.440000 1.090000
v 1.580000 0.425007 1.203880
v 1.580000 0.381051 1.310000
v 1.580000 0.311127 1.401127
v 1.580000 0.220000 1.471051
v 1.580000 0.113880 1.515007
v 1.580000 0.000000 1.530000
v 1.580000 -0.113880 1.515007
v 1.580000 -0.220000 1.471051
v 1.580000 -0.311127 1.401127
v 1.580000 -0.381051 1.310000
v 1.580000 -0.425007 1.203880
v 1.580000 -0.440000 1.090000
v 1.580000 -0.425007 0.976120
v 1.580000 -0.381051 0.870000
v 1.580000 -0.311127 0.778873
v 1.580000 -0.220000 0.708949
v 1.580000 -0.113880 0.664993
v 1.580000 -0.000000 0.650000
v 1.580000 0.113880 0.664993
v 1.580000 0.220000 0.708949
v 1.580000 0.311127 0.778873
v 1.580000 0.381051 0.870000
v 1.580000 0.425007 0.976120
o base
f 24 23 22 21 20 19 18 17 16 15 14 13 12 11 10 9 8 7 6 5 4 3 2 1
f 25 26 27 28 29 30 31 32 33 34 35 36 37 38 39 40 41 42 43 44 45 46 47 48
f 1 2 26 25
f 2 3 27 26
f 3 4 28 27
f 4 5 29 28
f 5 6 30 29
f 6 7 31 30
f 7 8 32 31
f 8 9 33 32
f 9 10 34 33
f 10 11 35 34
f 11 12 36 35
f 12 13 37 36
f 13 14 38 37
f 14 15 39 38
f 15 16 40 39
f 16 17 41 40
f 17 18 42 41
f 18 19 43 42
f 19 20 44 43
f 20 21 45 44
f 21 22 46 45
f 22 23 47 46
f 23 24 48 47
f 24 1 25 48
o stem
f 72 71 70 69 68 67 66 65 64 63 62 61 60 59 58 57 56 55 54 53 52 51 50 49
f 73 74 75 76 77 78 79 80 81 82 83 84 85 86 87 88 89 90 91 92 93 94 95 96
f 49 50 74 73
f 50 51 75 74
f 51 52 76 75
f 52 53 77 76
f 53 54 78 77
f 54 55 79 78
f 55 56 80 79
f 56 57 81 80
f 57 58 82 81
f 58 59 83 82
f 59 60 84 83
f 60 61 85 84
f 61 62 86 85
f 62 63 87 86
f 63 64 88 87
f 64 65 89 88
f 65 66 90 89
f 66 67 91 90
f 67 68 92 91
f 68 69 93 92
f 69 70 94 93
f 70 71 95 94
f 71 72 96 95
f 72 49 73 96
o arm
f 107 105 103 101 99 97
f 98 100 102 104 106 108
f 97 99 100 98
f 99 101 102 100
f 101 103 104 102
f 103 105 106 104
f 105 107 108 106
f 107 97 98 108
f 119 117 115 113 111 109
f 110 112 114 116 118 120
f 109 111 112 110
f 111 113 114 112
f 113 115 116 114
f 115 117 118 116
f 117 119 120 118
f 119 109 110 120
o socket
f 131 129 127 125 123 121
f 122 124 126 128 130 132
f 121 123 124 122
f 123 125 126 124
f 125 127 128 126
f 127 129 130 128
f 129 131 132 130
f 131 121 122 132
o shade
f 133 134 158 157
f 134 135 159 158
f 135 136 160 159
f 136 137 161 160
f 137 138 162 161
f 138 139 163 162
f 139 140 164 163
f 140 141 165 164
f 141 142 166 165
f 142 143 167 166
f 143 144 168 167
f 144 145 169 168
f 145 146 170 169
f 146 147 171 170
f 147 148 172 171
f 148 149 173 172
f 149 150 174 173
f 150 151 175 174
f 151 152 176 175
f 152 153 177 176
f 153 154 178 177
f 154 155 179 178
f 155 156 180 179
f 156 133 157 180
