# Old-fashioned kerosene hurricane lantern
v 0.620000 0.000000 0.000000
v 0.589655 0.191591 0.000000
v 0.501591 0.364427 0.000000
v 0.364427 0.501591 0.000000
v 0.191591 0.589655 0.000000
v 0.000000 0.620000 0.000000
v -0.191591 0.589655 0.000000
v -0.364427 0.501591 0.000000
v -0.501591 0.364427 0.000000
v -0.589655 0.191591 0.000000
v -0.620000 0.000000 0.000000
v -0.589655 -0.191591 0.000000
v -0.501591 -0.364427 0.000000
v -0.364427 -0.501591 0.000000
v -0.191591 -0.589655 0.000000
v -0.000000 -0.620000 0.000000
v 0.191591 -0.589655 0.000000
v 0.364427 -0.501591 0.000000
v 0.501591 -0.364427 0.000000
v 0.589655 -0.191591 0.000000
v 0.700000 0.000000 0.120000
v 0.665740 0.216312 0.120000
v 0.566312 0.411450 0.120000
v 0.411450 0.566312 0.120000
v 0.216312 0.665740 0.120000
v 0.000000 0.700000 0.120000
v -0.216312 0.665740 0.120000
v -0.411450 0.566312 0.120000
v -0.566312 0.411450 0.120000
v -0.665740 0.216312 0.120000
v -0.700000 0.000000 0.120000
v -0.665740 -0.216312 0.120000
v -0.566312 -0.411450 0.120000
v -0.411450 -0.566312 0.120000
v -0.216312 -0.665740 0.120000
v -0.000000 -0.700000 0.120000
v 0.216312 -0.665740 0.120000
v 0.411450 -0.566312 0.120000
v 0.566312 -0.411450 0.120000
v 0.665740 -0.216312 0.120000
v 0.700000 0.000000 0.120000
v 0.665740 0.216312 0.120000
v 0.566312 0.411450 0.120000
v 0.411450 0.566312 0.120000
v 0.216312 0.665740 0.120000
v 0.000000 0.700000 0.120000
v -0.216312 0.665740 0.120000
v -0.411450 0.566312 0.120000
v -0.566312 0.411450 0.120000
v -0.665740 0.216312 0.120000
v -0.700000 0.000000 0.120000
v -0.665740 -0.216312 0.120000
v -0.566312 -0.411450 0.120000
v -0.411450 -0.566312 0.120000
v -0.216312 -0.665740 0.120000
v -0.000000 -0.700000 0.120000
v 0.216312 -0.665740 0.120000
v 0.411450 -0.566312 0.120000
v 0.566312 -0.411450 0.120000
v 0.665740 -0.216312 0.120000
v 0.540000 0.000000 0.340000
v 0.513571 0.166869 0.340000
v 0.436869 0.317404 0.340000
v 0.317404 0.436869 0.340000
v 0.166869 0.513571 0.340000
v 0.000000 0.540000 0.340000
v -0.166869 0.513571 0.340000
v -0.317404 0.436869 0.340000
v -0.436869 0.317404 0.340000
v -0.513571 0.166869 0.340000
v -0.540000 0.000000 0.340000
v -0.513571 -0.166869 0.340000
v -0.436869 -0.317404 0.340000
v -0.317404 -0.436869 0.340000
v -0.166869 -0.513571 0.340000
v -0.000000 -0.540000 0.340000
v 0.166869 -0.513571 0.340000
v 0.317404 -0.436869 0.340000
v 0.436869 -0.317404 0.340000
v 0.513571 -0.166869 0.340000
v 0.290000 0.000000 0.340000
v 0.275806 0.089615 0.340000
v 0.234615 0.170458 0.340000
v 0.170458 0.234615 0.340000
v 0.089615 0.275806 0.340000
v 0.000000 0.290000 0.340000
v -0.089615 0.275806 0.340000
v -0.170458 0.234615 0.340000
v -0.234615 0.170458 0.340000
v -0.275806 0.089615 0.340000
v -0.290000 0.000000 0.340000
v -0.275806 -0.089615 0.340000
v -0.234615 -0.170458 0.340000
v -0.170458 -0.234615 0.340000
v -0.089615 -0.275806 0.340000
v -0.000000 -0.290000 0.340000
v 0.089615 -0.275806 0.340000
v 0.170458 -0.234615 0.340000
v 0.234615 -0.170458 0.340000
v 0.275806 -0.089615 0.340000
v 0.250000 0.000000 0.520000
v 0.237764 0.077254 0.520000
v 0.202254 0.146946 0.520000
v 0.146946 0.202254 0.520000
v 0.077254 0.237764 0.520000
v 0.000000 0.250000 0.520000
v -0.077254 0.237764 0.520000
v -0.146946 0.202254 0.520000
v -0.202254 0.146946 0.520000
v -0.237764 0.077254 0.520000
v -0.250000 0.000000 0.520000
v -0.237764 -0.077254 0.520000
v -0.202254 -0.146946 0.520000
v -0.146946 -0.202254 0.520000
v -0.077254 -0.237764 0.520000
v -0.000000 -0.250000 0.520000
v 0.077254 -0.237764 0.520000
v 0.146946 -0.202254 0.520000
v 0.202254 -0.146946 0.520000
v 0.237764 -0.077254 0.520000
v 0.100000 0.000000 0.520000
v 0.095106 0.030902 0.520000
v 0.080902 0.058779 0.520000
v 0.058779 0.080902 0.520000
v 0.030902 0.095106 0.520000
v 0.000000 0.100000 0.520000
v -0.030902 0.095106 0.520000
v -0.058779 0.080902 0.520000
v -0.080902 0.058779 0.520000
v -0.095106 0.030902 0.520000
v -0.100000 0.000000 0.520000
v -0.095106 -0.030902 0.520000
v -0.080902 -0.058779 0.520000
v -0.058779 -0.080902 0.520000
v -0.030902 -0.095106 0.520000
v -0.000000 -0.100000 0.520000
v 0.030902 -0.095106 0.520000
v 0.058779 -0.080902 0.520000
v 0.080902 -0.058779 0.520000
v 0.095106 -0.030902 0.520000
v 0.100000 0.000000 0.600000
v 0.095106 0.030902 0.600000
v 0.080902 0.058779 0.600000
v 0.058779 0.080902 0.600000
v 0.030902 0.095106 0.600000
v 0.000000 0.100000 0.600000
v -0.030902 0.095106 0.600000
v -0.058779 0.080902 0.600000
v -0.080902 0.058779 0.600000
v -0.095106 0.030902 0.600000
v -0.100000 0.000000 0.600000
v -0.095106 -0.030902 0.600000
v -0.080902 -0.058779 0.600000
v -0.058779 -0.080902 0.600000
v -0.030902 -0.095106 0.600000
v -0.000000 -0.100000 0.600000
v 0.030902 -0.095106 0.600000
v 0.058779 -0.080902 0.600000
v 0.080902 -0.058779 0.600000
v 0.095106 -0.030902 0.600000
v 0.360000 0.000000 0.490000
v 0.342380 0.111246 0.490000
v 0.291246 0.211603 0.490000
v 0.211603 0.291246 0.490000
v 0.111246 0.342380 0.490000
v 0.000000 0.360000 0.490000
v -0.111246 0.342380 0.490000
v -0.211603 0.291246 0.490000
v -0.291246 0.211603 0.490000
v -0.342380 0.111246 0.490000
v -0.360000 0.000000 0.490000
v -0.342380 -0.111246 0.490000
v -0.291246 -0.211603 0.490000
v -0.211603 -0.291246 0.490000
v -0.111246 -0.342380 0.490000
v -0.000000 -0.360000 0.490000
v 0.111246 -0.342380 0.490000
v 0.211603 -0.291246 0.490000
v 0.291246 -0.211603 0.490000
v 0.342380 -0.111246 0.490000
v 0.250000 0.000000 1.320000
v 0.237764 0.077254 1.320000
v 0.202254 0.146946 1.320000
v 0.146946 0.202254 1.320000
v 0.077254 0.237764 1.320000
v 0.000000 0.250000 1.320000
v -0.077254 0.237764 1.320000
v -0.146946 0.202254 1.320000
v -0.202254 0.146946 1.320000
v -0.237764 0.077254 1.320000
v -0.250000 0.000000 1.320000
v -0.237764 -0.077254 1.320000
v -0.202254 -0.146946 1.320000
v -0.146946 -0.202254 1.320000
v -0.077254 -0.237764 1.320000
v -0.000000 -0.250000 1.320000
v 0.077254 -0.237764 1.320000
v 0.146946 -0.202254 1.320000
v 0.202254 -0.146946 1.320000
v 0.237764 -0.077254 1.320000
v 0.420000 0.000000 1.310000
v 0.399444 0.129787 1.310000
v 0.339787 0.246870 1.310000
v 0.246870 0.339787 1.310000
v 0.129787 0.399444 1.310000
v 0.000000 0.420000 1.310000
v -0.129787 0.399444 1.310000
v -0.246870 0.339787 1.310000
v -0.339787 0.246870 1.310000
v -0.399444 0.129787 1.310000
v -0.420000 0.000000 1.310000
v -0.399444 -0.129787 1.310000
v -0.339787 -0.246870 1.310000
v -0.246870 -0.339787 1.310000
v -0.129787 -0.399444 1.310000
v -0.000000 -0.420000 1.310000
v 0.129787 -0.399444 1.310000
v 0.246870 -0.339787 1.310000
v 0.339787 -0.246870 1.310000
v 0.399444 -0.129787 1.310000
v 0.280000 0.000000 1.480000
v 0.266296 0.086525 1.480000
v 0.226525 0.164580 1.480000
v 0.164580 0.226525 1.480000
v 0.086525 0.266296 1.480000
v 0.000000 0.280000 1.480000
v -0.086525 0.266296 1.480000
v -0.164580 0.226525 1.480000
v -0.226525 0.164580 1.480000
v -0.266296 0.086525 1.480000
v -0.280000 0.000000 1.480000
v -0.266296 -0.086525 1.480000
v -0.226525 -0.164580 1.480000
v -0.164580 -0.226525 1.480000
v -0.086525 -0.266296 1.480000
v -0.000000 -0.280000 1.480000
v 0.086525 -0.266296 1.480000
v 0.164580 -0.226525 1.480000
v 0.226525 -0.164580 1.480000
v 0.266296 -0.086525 1.480000
v 0.280000 0.000000 1.480000
v 0.266296 0.086525 1.480000
v 0.226525 0.164580 1.480000
v 0.164580 0.226525 1.480000
v 0.086525 0.266296 1.480000
v 0.000000 0.280000 1.480000
v -0.086525 0.266296 1.480000
v -0.164580 0.226525 1.480000
v -0.226525 0.164580 1.480000
v -0.266296 0.086525 1.480000
v -0.280000 0.000000 1.480000
v -0.266296 -0.086525 1.480000
v -0.226525 -0.164580 1.480000
v -0.164580 -0.226525 1.480000
v -0.086525 -0.266296 1.480000
v -0.000000 -0.280000 1.480000
v 0.086525 -0.266296 1.480000
v 0.164580 -0.226525 1.480000
v 0.226525 -0.164580 1.480000
v 0.266296 -0.086525 1.480000
v 0.180000 0.000000 1.550000
v 0.171190 0.055623 1.550000
v 0.145623 0.105801 1.550000
v 0.105801 0.145623 1.550000
v 0.055623 0.171190 1.550000
v 0.000000 0.180000 1.550000
v -0.055623 0.171190 1.550000
v -0.105801 0.145623 1.550000
v -0.145623 0.105801 1.550000
v -0.171190 0.055623 1.550000
v -0.180000 0.000000 1.550000
v -0.171190 -0.055623 1.550000
v -0.145623 -0.105801 1.550000
v -0.105801 -0.145623 1.550000
v -0.055623 -0.171190 1.550000
v -0.000000 -0.180000 1.550000
v 0.055623 -0.171190 1.550000
v 0.105801 -0.145623 1.550000
v 0.145623 -0.105801 1.550000
v 0.171190 -0.055623 1.550000
v 0.298269 0.325269 0.280000
v 0.298269 0.325269 1.420000
v 0.306177 0.306177 0.280000
v 0.306177 0.306177 1.420000
v 0.325269 0.298269 0.280000
v 0.325269 0.298269 1.420000
v 0.344361 0.306177 0.280000
v 0.344361 0.306177 1.420000
v 0.352269 0.325269 0.280000
v 0.352269 0.325269 1.420000
v 0.344361 0.344361 0.280000
v 0.344361 0.344361 1.420000
v 0.325269 0.352269 0.280000
v 0.325269 0.352269 1.420000
v 0.306177 0.344361 0.280000
v 0.306177 0.344361 1.420000
v -0.352269 0.325269 0.280000
v -0.352269 0.325269 1.420000
v -0.344361 0.306177 0.280000
v -0.344361 0.306177 1.420000
v -0.325269 0.298269 0.280000
v -0.325269 0.298269 1.420000
v -0.306177 0.306177 0.280000
v -0.306177 0.306177 1.420000
v -0.298269 0.325269 0.280000
v -0.298269 0.325269 1.420000
v -0.306177 0.344361 0.280000
v -0.306177 0.344361 1.420000
v -0.325269 0.352269 0.280000
v -0.325269 0.352269 1.420000
v -0.344361 0.344361 0.280000
v -0.344361 0.344361 1.420000
v -0.352269 -0.325269 0.280000
v -0.352269 -0.325269 1.420000
v -0.344361 -0.344361 0.280000
v -0.344361 -0.344361 1.420000
v -0.325269 -0.352269 0.280000
v -0.325269 -0.352269 1.420000
v -0.306177 -0.344361 0.280000
v -0.306177 -0.344361 1.420000
v -0.298269 -0.325269 0.280000
v -0.298269 -0.325269 1.420000
v -0.306177 -0.306177 0.280000
v -0.306177 -0.306177 1.420000
v -0.325269 -0.298269 0.280000
v -0.325269 -0.298269 1.420000
v -0.344361 -0.306177 0.280000
v -0.344361 -0.306177 1.420000
v 0.298269 -0.325269 0.280000
v 0.298269 -0.325269 1.420000
v 0.306177 -0.344361 0.280000
v 0.306177 -0.344361 1.420000
v 0.325269 -0.352269 0.280000
v 0.325269 -0.352269 1.420000
v 0.344361 -0.344361 0.280000
v 0.344361 -0.344361 1.420000
v 0.352269 -0.325269 0.280000
v 0.352269 -0.325269 1.420000
v 0.344361 -0.306177 0.280000
v 0.344361 -0.306177 1.420000
v 0.325269 -0.298269 0.280000
v 0.325269 -0.298269 1.420000
v 0.306177 -0.306177 0.280000
v 0.306177 -0.306177 1.420000
v -0.032000 -0.570000 1.380000
v -0.032000 -0.550578 1.548232
v -0.022627 -0.592478 1.382595
v -0.022627 -0.573056 1.550827
v -0.000000 -0.601789 1.383670
v -0.000000 -0.582367 1.551902
v 0.022627 -0.592478 1.382595
v 0.022627 -0.573056 1.550827
v 0.032000 -0.570000 1.380000
v 0.032000 -0.550578 1.548232
v 0.022627 -0.547522 1.377405
v 0.022627 -0.528100 1.545637
v 0.000000 -0.538211 1.376330
v 0.000000 -0.518789 1.544562
v -0.022627 -0.547522 1.377405
v -0.022627 -0.528100 1.545637
v -0.032000 -0.550578 1.548232
v -0.032000 -0.493634 1.705000
v -0.022627 -0.571846 1.555958
v -0.022627 -0.514902 1.712725
v -0.000000 -0.580655 1.559157
v -0.000000 -0.523712 1.715925
v 0.022627 -0.571846 1.555958
v 0.022627 -0.514902 1.712725
v 0.032000 -0.550578 1.548232
v 0.032000 -0.493634 1.705000
v 0.022627 -0.529310 1.540507
v 0.022627 -0.472367 1.697275
v 0.000000 -0.520500 1.537307
v 0.000000 -0.463557 1.694075
v -0.022627 -0.529310 1.540507
v -0.022627 -0.472367 1.697275
v -0.032000 -0.493634 1.705000
v -0.032000 -0.403051 1.839619
v -0.022627 -0.512408 1.717632
v -0.022627 -0.421824 1.852252
v -0.000000 -0.520184 1.722865
v -0.000000 -0.429600 1.857484
v 0.022627 -0.512408 1.717632
v 0.022627 -0.421824 1.852252
v 0.032000 -0.493634 1.705000
v 0.032000 -0.403051 1.839619
v 0.022627 -0.474861 1.692368
v 0.022627 -0.384278 1.826987
v 0.000000 -0.467085 1.687135
v 0.000000 -0.376502 1.821755
v -0.022627 -0.474861 1.692368
v -0.022627 -0.384278 1.826987
v 0.032000 -0.403051 1.839619
v 0.032000 -0.285000 1.942917
v 0.022627 -0.388150 1.822591
v 0.022627 -0.270100 1.925888
v 0.000000 -0.381978 1.815537
v 0.000000 -0.263928 1.918834
v -0.022627 -0.388150 1.822591
v -0.022627 -0.270100 1.925888
v -0.032000 -0.403051 1.839619
v -0.032000 -0.285000 1.942917
v -0.022627 -0.417951 1.856648
v -0.022627 -0.299900 1.959945
v -0.000000 -0.424123 1.863702
v -0.000000 -0.306072 1.966999
v 0.022627 -0.417951 1.856648
v 0.022627 -0.299900 1.959945
v 0.032000 -0.285000 1.942917
v 0.032000 -0.147527 2.007852
v 0.022627 -0.275336 1.922457
v 0.022627 -0.137863 1.987392
v 0.000000 -0.271333 1.913982
v 0.000000 -0.133860 1.978917
v -0.022627 -0.275336 1.922457
v -0.022627 -0.137863 1.987392
v -0.032000 -0.285000 1.942917
v -0.032000 -0.147527 2.007852
v -0.022627 -0.294664 1.963376
v -0.022627 -0.157191 2.028312
v -0.000000 -0.298667 1.971851
v -0.000000 -0.161194 2.036786
v 0.022627 -0.294664 1.963376
v 0.022627 -0.157191 2.028312
v 0.032000 -0.147527 2.007852
v 0.032000 0.000000 2.030000
v 0.022627 -0.144167 1.985475
v 0.022627 0.003359 2.007623
v 0.000000 -0.142776 1.976206
v 0.000000 0.004751 1.998355
v -0.022627 -0.144167 1.985475
v -0.022627 0.003359 2.007623
v -0.032000 -0.147527 2.007852
v -0.032000 0.000000 2.030000
v -0.022627 -0.150886 2.030228
v -0.022627 -0.003359 2.052377
v -0.000000 -0.152278 2.039497
v -0.000000 -0.004751 2.061645
v 0.022627 -0.150886 2.030228
v 0.022627 -0.003359 2.052377
v 0.032000 0.000000 2.030000
v 0.032000 0.147527 2.007852
v 0.022627 -0.003359 2.007623
v 0.022627 0.144167 1.985475
v 0.000000 -0.004751 1.998355
v 0.000000 0.142776 1.976206
v -0.022627 -0.003359 2.007623
v -0.022627 0.144167 1.985475
v -0.032000 0.000000 2.030000
v -0.032000 0.147527 2.007852
v -0.022627 0.003359 2.052377
v -0.022627 0.150886 2.030228
v -0.000000 0.004751 2.061645
v -0.000000 0.152278 2.039497
v 0.022627 0.003359 2.052377
v 0.022627 0.150886 2.030228
v 0.032000 0.147527 2.007852
v 0.032000 0.285000 1.942917
v 0.022627 0.137863 1.987392
v 0.022627 0.275336 1.922457
v 0.000000 0.133860 1.978917
v 0.000000 0.271333 1.913982
v -0.022627 0.137863 1.987392
v -0.022627 0.275336 1.922457
v -0.032000 0.147527 2.007852
v -0.032000 0.285000 1.942917
v -0.022627 0.157191 2.028312
v -0.022627 0.294664 1.963376
v -0.000000 0.161194 2.036786
v -0.000000 0.298667 1.971851
v 0.022627 0.157191 2.028312
v 0.022627 0.294664 1.963376
v 0.032000 0.285000 1.942917
v 0.032000 0.403051 1.839619
v 0.022627 0.270100 1.925888
v 0.022627 0.388150 1.822591
v 0.000000 0.263928 1.918834
v 0.000000 0.381978 1.815537
v -0.022627 0.270100 1.925888
v -0.022627 0.388150 1.822591
v -0.032000 0.285000 1.942917
v -0.032000 0.403051 1.839619
v -0.022627 0.299900 1.959945
v -0.022627 0.417951 1.856648
v -0.000000 0.306072 1.966999
v -0.000000 0.424123 1.863702
v 0.022627 0.299900 1.959945
v 0.022627 0.417951 1.856648
v 0.032000 0.403051 1.839619
v 0.032000 0.493634 1.705000
v 0.022627 0.384278 1.826987
v 0.022627 0.474861 1.692368
v 0.000000 0.376502 1.821755
v 0.000000 0.467085 1.687135
v -0.022627 0.384278 1.826987
v -0.022627 0.474861 1.692368
v -0.032000 0.403051 1.839619
v -0.032000 0.493634 1.705000
v -0.022627 0.421824 1.852252
v -0.022627 0.512408 1.717632
v -0.000000 0.429600 1.857484
v -0.000000 0.520184 1.722865
v 0.022627 0.421824 1.852252
v 0.022627 0.512408 1.717632
v 0.032000 0.493634 1.705000
v 0.032000 0.550578 1.548232
v 0.022627 0.472367 1.697275
v 0.022627 0.529310 1.540507
v 0.000000 0.463557 1.694075
v 0.000000 0.520500 1.537307
v -0.022627 0.472367 1.697275
v -0.022627 0.529310 1.540507
v -0.032000 0.493634 1.705000
v -0.032000 0.550578 1.548232
v -0.022627 0.514902 1.712725
v -0.022627 0.571846 1.555958
v -0.000000 0.523712 1.715925
v -0.000000 0.580655 1.559157
v 0.022627 0.514902 1.712725
v 0.022627 0.571846 1.555958
v 0.032000 0.550578 1.548232
v 0.032000 0.570000 1.380000
v 0.022627 0.528100 1.545637
v 0.022627 0.547522 1.377405
v 0.000000 0.518789 1.544562
v 0.000000 0.538211 1.376330
v -0.022627 0.528100 1.545637
v -0.022627 0.547522 1.377405
v -0.032000 0.550578 1.548232
v -0.032000 0.570000 1.380000
v -0.022627 0.573056 1.550827
v -0.022627 0.592478 1.382595
v -0.000000 0.582367 1.551902
v -0.000000 0.601789 1.383670
v 0.022627 0.573056 1.550827
v 0.022627 0.592478 1.382595
v 0.520000 -0.060000 0.430000
v 0.680000 -0.060000 0.430000
v 0.520000 -0.042426 0.387574
v 0.680000 -0.042426 0.387574
v 0.520000 -0.000000 0.370000
v 0.680000 -0.000000 0.370000
v 0.520000 0.042426 0.387574
v 0.680000 0.042426 0.387574
v 0.520000 0.060000 0.430000
v 0.680000 0.060000 0.430000
v 0.520000 0.042426 0.472426
v 0.680000 0.042426 0.472426
v 0.520000 0.000000 0.490000
v 0.680000 0.000000 0.490000
v 0.520000 -0.042426 0.472426
v 0.680000 -0.042426 0.472426
o brass_base
f 20 19 18 17 16 15 14 13 12 11 10 9 8 7 6 5 4 3 2 1
f 21 22 23 24 25 26 27 28 29 30 31 32 33 34 35 36 37 38 39 40
f 1 2 22 21
f 2 3 23 22
f 3 4 24 23
f 4 5 25 24
f 5 6 26 25
f 6 7 27 26
f 7 8 28 27
f 8 9 29 28
f 9 10 30 29
f 10 11 31 30
f 11 12 32 31
f 12 13 33 32
f 13 14 34 33
f 14 15 35 34
f 15 16 36 35
f 16 17 37 36
f 17 18 38 37
f 18 19 39 38
f 19 20 40 39
f 20 1 21 40
f 60 59 58 57 56 55 54 53 52 51 50 49 48 47 46 45 44 43 42 41
f 61 62 63 64 65 66 67 68 69 70 71 72 73 74 75 76 77 78 79 80
f 41 42 62 61
f 42 43 63 62
f 43 44 64 63
f 44 45 65 64
f 45 46 66 65
f 46 47 67 66
f 47 48 68 67
f 48 49 69 68
f 49 50 70 69
f 50 51 71 70
f 51 52 72 71
f 52 53 73 72
f 53 54 74 73
f 54 55 75 74
f 55 56 76 75
f 56 57 77 76
f 57 58 78 77
f 58 59 79 78
f 59 60 80 79
f 60 41 61 80
o burner
f 100 99 98 97 96 95 94 93 92 91 90 89 88 87 86 85 84 83 82 81
f 101 102 103 104 105 106 107 108 109 110 111 112 113 114 115 116 117 118 119 120
f 81 82 102 101
f 82 83 103 102
f 83 84 104 103
f 84 85 105 104
f 85 86 106 105
f 86 87 107 106
f 87 88 108 107
f 88 89 109 108
f 89 90 110 109
f 90 91 111 110
f 91 92 112 111
f 92 93 113 112
f 93 94 114 113
f 94 95 115 114
f 95 96 116 115
f 96 97 117 116
f 97 98 118 117
f 98 99 119 118
f 99 100 120 119
f 100 81 101 120
o wick_knob
f 140 139 138 137 136 135 134 133 132 131 130 129 128 127 126 125 124 123 122 121
f 141 142 143 144 145 146 147 148 149 150 151 152 153 154 155 156 157 158 159 160
f 121 122 142 141
f 122 123 143 142
f 123 124 144 143
f 124 125 145 144
f 125 126 146 145
f 126 127 147 146
f 127 128 148 147
f 128 129 149 148
f 129 130 150 149
f 130 131 151 150
f 131 132 152 151
f 132 133 153 152
f 133 134 154 153
f 134 135 155 154
f 135 136 156 155
f 136 137 157 156
f 137 138 158 157
f 138 139 159 158
f 139 140 160 159
f 140 121 141 160
o glass_chimney
f 161 162 182 181
f 162 163 183 182
f 163 164 184 183
f 164 165 185 184
f 165 166 186 185
f 166 167 187 186
f 167 168 188 187
f 168 169 189 188
f 169 170 190 189
f 170 171 191 190
f 171 172 192 191
f 172 173 193 192
f 173 174 194 193
f 174 175 195 194
f 175 176 196 195
f 176 177 197 196
f 177 178 198 197
f 178 179 199 198
f 179 180 200 199
f 180 161 181 200
o top_vent
f 220 219 218 217 216 215 214 213 212 211 210 209 208 207 206 205 204 203 202 201
f 221 222 223 224 225 226 227 228 229 230 231 232 233 234 235 236 237 238 239 240
f 201 202 222 221
f 202 203 223 222
f 203 204 224 223
f 204 205 225 224
f 205 206 226 225
f 206 207 227 226
f 207 208 228 227
f 208 209 229 228
f 209 210 230 229
f 210 211 231 230
f 211 212 232 231
f 212 213 233 232
f 213 214 234 233
f 214 215 235 234
f 215 216 236 235
f 216 217 237 236
f 217 218 238 237
f 218 219 239 238
f 219 220 240 239
f 220 201 221 240
o top_cap
f 260 259 258 257 256 255 254 253 252 251 250 249 248 247 246 245 244 243 242 241
f 261 262 263 264 265 266 267 268 269 270 271 272 273 274 275 276 277 278 279 280
f 241 242 262 261
f 242 243 263 262
f 243 244 264 263
f 244 245 265 264
f 245 246 266 265
f 246 247 267 266
f 247 248 268 267
f 248 249 269 268
f 249 250 270 269
f 250 251 271 270
f 251 252 272 271
f 252 253 273 272
f 253 254 274 273
f 254 255 275 274
f 255 256 276 275
f 256 257 277 276
f 257 258 278 277
f 258 259 279 278
f 259 260 280 279
f 260 241 261 280
o wire_frame
f 295 293 291 289 287 285 283 281
f 282 284 286 288 290 292 294 296
f 281 283 284 282
f 283 285 286 284
f 285 287 288 286
f 287 289 290 288
f 289 291 292 290
f 291 293 294 292
f 293 295 296 294
f 295 281 282 296
f 311 309 307 305 303 301 299 297
f 298 300 302 304 306 308 310 312
f 297 299 300 298
f 299 301 302 300
f 301 303 304 302
f 303 305 306 304
f 305 307 308 306
f 307 309 310 308
f 309 311 312 310
f 311 297 298 312
f 327 325 323 321 319 317 315 313
f 314 316 318 320 322 324 326 328
f 313 315 316 314
f 315 317 318 316
f 317 319 320 318
f 319 321 322 320
f 321 323 324 322
f 323 325 326 324
f 325 327 328 326
f 327 313 314 328
f 343 341 339 337 335 333 331 329
f 330 332 334 336 338 340 342 344
f 329 331 332 330
f 331 333 334 332
f 333 335 336 334
f 335 337 338 336
f 337 339 340 338
f 339 341 342 340
f 341 343 344 342
f 343 329 330 344
o carrying_handle
f 359 357 355 353 351 349 347 345
f 346 348 350 352 354 356 358 360
f 345 347 348 346
f 347 349 350 348
f 349 351 352 350
f 351 353 354 352
f 353 355 356 354
f 355 357 358 356
f 357 359 360 358
f 359 345 346 360
f 375 373 371 369 367 365 363 361
f 362 364 366 368 370 372 374 376
f 361 363 364 362
f 363 365 366 364
f 365 367 368 366
f 367 369 370 368
f 369 371 372 370
f 371 373 374 372
f 373 375 376 374
f 375 361 362 376
f 391 389 387 385 383 381 379 377
f 378 380 382 384 386 388 390 392
f 377 379 380 378
f 379 381 382 380
f 381 383 384 382
f 383 385 386 384
f 385 387 388 386
f 387 389 390 388
f 389 391 392 390
f 391 377 378 392
f 407 405 403 401 399 397 395 393
f 394 396 398 400 402 404 406 408
f 393 395 396 394
f 395 397 398 396
f 397 399 400 398
f 399 401 402 400
f 401 403 404 402
f 403 405 406 404
f 405 407 408 406
f 407 393 394 408
f 423 421 419 417 415 413 411 409
f 410 412 414 416 418 420 422 424
f 409 411 412 410
f 411 413 414 412
f 413 415 416 414
f 415 417 418 416
f 417 419 420 418
f 419 421 422 420
f 421 423 424 422
f 423 409 410 424
f 439 437 435 433 431 429 427 425
f 426 428 430 432 434 436 438 440
f 425 427 428 426
f 427 429 430 428
f 429 431 432 430
f 431 433 434 432
f 433 435 436 434
f 435 437 438 436
f 437 439 440 438
f 439 425 426 440
f 455 453 451 449 447 445 443 441
f 442 444 446 448 450 452 454 456
f 441 443 444 442
f 443 445 446 444
f 445 447 448 446
f 447 449 450 448
f 449 451 452 450
f 451 453 454 452
f 453 455 456 454
f 455 441 442 456
f 471 469 467 465 463 461 459 457
f 458 460 462 464 466 468 470 472
f 457 459 460 458
f 459 461 462 460
f 461 463 464 462
f 463 465 466 464
f 465 467 468 466
f 467 469 470 468
f 469 471 472 470
f 471 457 458 472
f 487 485 483 481 479 477 475 473
f 474 476 478 480 482 484 486 488
f 473 475 476 474
f 475 477 478 476
f 477 479 480 478
f 479 481 482 480
f 481 483 484 482
f 483 485 486 484
f 485 487 488 486
f 487 473 474 488
f 503 501 499 497 495 493 491 489
f 490 492 494 496 498 500 502 504
f 489 491 492 490
f 491 493 494 492
f 493 495 496 494
f 495 497 498 496
f 497 499 500 498
f 499 501 502 500
f 501 503 504 502
f 503 489 490 504
f 519 517 515 513 511 509 507 505
f 506 508 510 512 514 516 518 520
f 505 507 508 506
f 507 509 510 508
f 509 511 512 510
f 511 513 514 512
f 513 515 516 514
f 515 517 518 516
f 517 519 520 518
f 519 505 506 520
f 535 533 531 529 527 525 523 521
f 522 524 526 528 530 532 534 536
f 521 523 524 522
f 523 525 526 524
f 525 527 528 526
f 527 529 530 528
f 529 531 532 530
f 531 533 534 532
f 533 535 536 534
f 535 521 522 536
o wick_adjuster
f 551 549 547 545 543 541 539 537
f 538 540 542 544 546 548 550 552
f 537 539 540 538
f 539 541 542 540
f 541 543 544 542
f 543 545 546 544
f 545 547 548 546
f 547 549 550 548
f 549 551 552 550
f 551 537 538 552
